PathFileType	4	(X/Y/Z)	 2.2Hzhigh_3min.trc
DataRate	CameraRate	NumFrames	NumMarkers	Units	OrigDataRate	OrigDataStartFrame	OrigNumFrames
200	200	7	43	m	200	1	1000
Frame#	Time	C7			LSH			RSH			MAN			RASI			LASI			HIPR			HIPL			RPSI			LPSI			COX			RTHI1			RTHI2			RTHI3			RTHI4			RLKN			RMKN			RSHA1			RSHA2			RSHA3			RSHA4			RLMAL			RMMAL			RHEEL			RMET5			RMET1			RTOE			LTHI1			LTHI2			LTHI3			LTHI4			LLKN			LMKN			LSHA1			LSHA2			LSHA3			LSHA4			LLMAL			LMMAL			LHEEL			LMET5			LMET1			LTOE			
		X1	Y1	Z1	X2	Y2	Z2	X3	Y3	Z3	X4	Y4	Z4	X5	Y5	Z5	X6	Y6	Z6	X7	Y7	Z7	X8	Y8	Z8	X9	Y9	Z9	X10	Y10	Z10	X11	Y11	Z11	X12	Y12	Z12	X13	Y13	Z13	X14	Y14	Z14	X15	Y15	Z15	X16	Y16	Z16	X17	Y17	Z17	X18	Y18	Z18	X19	Y19	Z19	X20	Y20	Z20	X21	Y21	Z21	X22	Y22	Z22	X23	Y23	Z23	X24	Y24	Z24	X25	Y25	Z25	X26	Y26	Z26	X27	Y27	Z27	X28	Y28	Z28	X29	Y29	Z29	X30	Y30	Z30	X31	Y31	Z31	X32	Y32	Z32	X33	Y33	Z33	X34	Y34	Z34	X35	Y35	Z35	X36	Y36	Z36	X37	Y37	Z37	X38	Y38	Z38	X39	Y39	Z39	X40	Y40	Z40	X41	Y41	Z41	X42	Y42	Z42	X43	Y43	Z43	
1	0.0050	-0.271734	1.449422	-0.547926	-0.184372	1.407967	-0.736468	-0.200485	1.422823	-0.340014	-0.126594	1.367931	-0.533464	-0.155330	0.914697	-0.390294	-0.138651	0.919427	-0.663516	-0.251643	0.966499	-0.361403	-0.234178	0.958524	-0.696047	-0.334955	0.972152	-0.485455	-0.329327	0.970630	-0.572701	-0.334820	0.972714	-0.531412	-0.226775	0.690466	-0.333776	-0.207144	0.633930	-0.331757	-0.145305	0.651386	-0.320258	-0.157626	0.711697	-0.320551	-0.158336	0.423888	-0.345674	-0.133612	0.406548	-0.461416	-0.262442	0.268719	-0.345547	-0.289462	0.237959	-0.354737	-0.219024	0.238616	-0.348382	-0.236679	0.204931	-0.361195	-0.364255	0.089066	-0.389773	-0.320245	0.083245	-0.467849	-0.413883	0.076896	-0.446951	-0.276782	0.034123	-0.332334	-0.214971	0.044136	-0.395468	-0.187755	0.034252	-0.391388	-0.211839	0.692283	-0.716321	-0.192377	0.634018	-0.718546	-0.130777	0.647991	-0.732311	-0.142700	0.706949	-0.732758	-0.121663	0.441615	-0.712894	-0.101262	0.427292	-0.599398	-0.256106	0.254079	-0.719600	-0.277944	0.220967	-0.712153	-0.225259	0.190834	-0.706213	-0.208592	0.228523	-0.719681	-0.337056	0.095314	-0.701622	-0.311425	0.094483	-0.616818	-0.397842	0.080281	-0.647637	-0.240369	0.028536	-0.737638	-0.191071	0.042210	-0.658152	-0.164392	0.033072	-0.664239	
2	0.0100	-0.271563	1.448814	-0.547963	-0.184160	1.407692	-0.736374	-0.200839	1.422390	-0.340062	-0.125728	1.367774	-0.533223	-0.154591	0.914391	-0.389971	-0.137875	0.920076	-0.662689	-0.250932	0.967581	-0.361148	-0.233410	0.960876	-0.695441	-0.334458	0.971997	-0.485285	-0.328456	0.970316	-0.572274	-0.333913	0.972387	-0.530951	-0.227290	0.689863	-0.334460	-0.207575	0.633186	-0.332548	-0.145658	0.650720	-0.320456	-0.158111	0.711038	-0.320554	-0.157795	0.423474	-0.346101	-0.132165	0.405391	-0.461435	-0.262980	0.268857	-0.345784	-0.289627	0.238074	-0.354837	-0.218945	0.238695	-0.348405	-0.236960	0.204912	-0.361147	-0.363954	0.089112	-0.389573	-0.320353	0.083213	-0.467751	-0.414008	0.076972	-0.446602	-0.276725	0.034159	-0.332284	-0.214983	0.044167	-0.395501	-0.187767	0.034249	-0.391455	-0.212622	0.691989	-0.715475	-0.193263	0.633683	-0.717426	-0.131813	0.647616	-0.732445	-0.143690	0.706557	-0.732918	-0.121651	0.441152	-0.712979	-0.099779	0.427083	-0.600053	-0.256086	0.254059	-0.719482	-0.277839	0.220937	-0.712045	-0.225199	0.190830	-0.706461	-0.208537	0.228423	-0.719771	-0.336910	0.095379	-0.701603	-0.311207	0.094298	-0.616772	-0.397733	0.080305	-0.647596	-0.240403	0.028523	-0.737687	-0.190934	0.042190	-0.658282	-0.164271	0.033077	-0.664329	
3	0.0150	-0.271589	1.449198	-0.548034	-0.184157	1.408376	-0.736400	-0.201298	1.422852	-0.340120	-0.125111	1.368532	-0.533048	-0.153856	0.915582	-0.390326	-0.137141	0.922067	-0.661095	-0.249733	0.969479	-0.360960	-0.232063	0.963824	-0.694646	-0.333779	0.972667	-0.485042	-0.327818	0.971226	-0.572076	-0.333038	0.972978	-0.530649	-0.227517	0.690184	-0.334896	-0.207817	0.633429	-0.333122	-0.145921	0.650895	-0.320633	-0.158279	0.711244	-0.320632	-0.157584	0.423685	-0.346517	-0.131812	0.405150	-0.461548	-0.263515	0.269339	-0.345749	-0.289778	0.238514	-0.354744	-0.218858	0.239114	-0.348543	-0.237204	0.205479	-0.360919	-0.363728	0.089301	-0.389239	-0.320506	0.083468	-0.467512	-0.414195	0.077283	-0.446210	-0.276600	0.034158	-0.332261	-0.214957	0.044147	-0.395512	-0.187741	0.034239	-0.391552	-0.213257	0.692622	-0.714774	-0.194031	0.634258	-0.716631	-0.132714	0.648110	-0.732496	-0.144496	0.707049	-0.732977	-0.121997	0.441408	-0.713100	-0.099124	0.427491	-0.600699	-0.256110	0.254464	-0.719747	-0.277799	0.221422	-0.712361	-0.225207	0.191494	-0.707158	-0.208544	0.228898	-0.720077	-0.336729	0.095743	-0.702017	-0.311126	0.094731	-0.617239	-0.397639	0.080752	-0.648151	-0.240311	0.028464	-0.737878	-0.190806	0.042208	-0.658474	-0.164187	0.033096	-0.664449	
4	0.0200	-0.271617	1.449838	-0.548113	-0.184141	1.409323	-0.736403	-0.201792	1.423559	-0.340179	-0.124591	1.369534	-0.532897	-0.153079	0.916961	-0.390624	-0.136388	0.924186	-0.659579	-0.248475	0.971485	-0.360753	-0.230669	0.966788	-0.693885	-0.333023	0.973561	-0.484767	-0.327081	0.972329	-0.571869	-0.332104	0.973787	-0.530320	-0.227692	0.690752	-0.335288	-0.208041	0.633889	-0.333637	-0.146158	0.651279	-0.320807	-0.158391	0.711663	-0.320720	-0.157547	0.424088	-0.346913	-0.131753	0.405177	-0.461697	-0.264025	0.269956	-0.345612	-0.289970	0.239023	-0.354647	-0.218837	0.239640	-0.348681	-0.237405	0.206061	-0.360813	-0.363498	0.089546	-0.388918	-0.320643	0.083795	-0.467271	-0.414347	0.077646	-0.445824	-0.276473	0.034150	-0.332251	-0.214920	0.044124	-0.395523	-0.187707	0.034229	-0.391646	-0.213850	0.693506	-0.714125	-0.194780	0.635076	-0.715891	-0.133572	0.648830	-0.732537	-0.145237	0.707770	-0.733013	-0.122462	0.441937	-0.713239	-0.098717	0.428061	-0.601304	-0.256201	0.254988	-0.720050	-0.277818	0.221999	-0.712717	-0.225248	0.192254	-0.707836	-0.208605	0.229506	-0.720411	-0.336544	0.096187	-0.702473	-0.311029	0.095256	-0.617745	-0.397521	0.081299	-0.648774	-0.240216	0.028403	-0.738075	-0.190689	0.042223	-0.658666	-0.164111	0.033113	-0.664559	
5	0.0250	-0.271760	1.451276	-0.548223	-0.184221	1.411061	-0.736438	-0.202389	1.425005	-0.340248	-0.124344	1.371265	-0.532813	-0.152236	0.919250	-0.391117	-0.135608	0.927063	-0.657855	-0.246949	0.974000	-0.360549	-0.228965	0.970042	-0.693092	-0.332093	0.975130	-0.484423	-0.326313	0.974230	-0.571735	-0.331110	0.975301	-0.530029	-0.227699	0.692055	-0.335510	-0.208189	0.635101	-0.333987	-0.146346	0.652317	-0.320959	-0.158307	0.712752	-0.320839	-0.157950	0.425049	-0.347210	-0.132551	0.405965	-0.461930	-0.264551	0.270902	-0.345272	-0.290215	0.239783	-0.354470	-0.218915	0.240488	-0.348848	-0.237656	0.206910	-0.360848	-0.363314	0.089927	-0.388545	-0.320778	0.084348	-0.466961	-0.414472	0.078201	-0.445433	-0.276325	0.034118	-0.332265	-0.214857	0.044079	-0.395521	-0.187650	0.034217	-0.391746	-0.214314	0.695147	-0.713610	-0.195444	0.636639	-0.715384	-0.134310	0.650238	-0.732527	-0.145796	0.709198	-0.732973	-0.123239	0.443154	-0.713416	-0.099023	0.429131	-0.601850	-0.256417	0.255877	-0.720559	-0.277949	0.222939	-0.713296	-0.225374	0.193460	-0.708682	-0.208776	0.230559	-0.720873	-0.336340	0.096866	-0.703157	-0.310968	0.096187	-0.618513	-0.397371	0.082151	-0.649709	-0.240068	0.028323	-0.738331	-0.190579	0.042254	-0.658887	-0.164057	0.033134	-0.664670	
6	0.0300	-0.271968	1.453408	-0.548358	-0.184316	1.413525	-0.736430	-0.203068	1.427119	-0.340331	-0.124329	1.373670	-0.532781	-0.151247	0.922088	-0.391470	-0.134711	0.930315	-0.656340	-0.245250	0.976855	-0.360300	-0.227150	0.973376	-0.692391	-0.330983	0.977303	-0.484009	-0.325313	0.976642	-0.571557	-0.329975	0.977410	-0.529672	-0.227568	0.694006	-0.335646	-0.208300	0.636934	-0.334217	-0.146486	0.653907	-0.321111	-0.158083	0.714403	-0.320989	-0.158899	0.426573	-0.347393	-0.134068	0.407436	-0.462237	-0.265130	0.272169	-0.344819	-0.290586	0.240730	-0.354329	-0.219201	0.241666	-0.348988	-0.237751	0.208153	-0.360756	-0.363209	0.090459	-0.388211	-0.320876	0.085100	-0.466642	-0.414502	0.078903	-0.445031	-0.276151	0.034077	-0.332324	-0.214747	0.044031	-0.395528	-0.187556	0.034202	-0.391843	-0.214661	0.697456	-0.713226	-0.196048	0.638854	-0.715037	-0.134923	0.652242	-0.732490	-0.146172	0.711236	-0.732872	-0.124331	0.445048	-0.713630	-0.099964	0.430653	-0.602326	-0.256828	0.257109	-0.721146	-0.278250	0.224145	-0.713953	-0.225602	0.194943	-0.709465	-0.209103	0.231993	-0.721407	-0.336128	0.097766	-0.703945	-0.310853	0.097317	-0.619392	-0.397135	0.083260	-0.650764	-0.239899	0.028246	-0.738594	-0.190496	0.042281	-0.659101	-0.164027	0.033145	-0.664750	
7	0.0350	-0.272265	1.456281	-0.548512	-0.184493	1.416809	-0.736403	-0.203874	1.430007	-0.340423	-0.124502	1.376852	-0.532778	-0.150120	0.925541	-0.391648	-0.133672	0.934014	-0.655065	-0.243450	0.980118	-0.360006	-0.225214	0.976860	-0.691791	-0.329682	0.980140	-0.483538	-0.324130	0.979677	-0.571334	-0.328703	0.980162	-0.529280	-0.227390	0.696675	-0.335661	-0.208469	0.639484	-0.334316	-0.146649	0.656112	-0.321242	-0.157789	0.716681	-0.321121	-0.160489	0.428701	-0.347454	-0.136288	0.409631	-0.462599	-0.265818	0.273789	-0.344332	-0.291100	0.241938	-0.354252	-0.219726	0.243247	-0.349111	-0.237970	0.209601	-0.360904	-0.363133	0.091190	-0.387872	-0.320929	0.086098	-0.466291	-0.414442	0.079811	-0.444627	-0.275996	0.034020	-0.332406	-0.214620	0.043980	-0.395522	-0.187460	0.034191	-0.391934	-0.214871	0.700517	-0.712988	-0.196584	0.641797	-0.714863	-0.135410	0.654911	-0.732427	-0.146345	0.713946	-0.732720	-0.125764	0.447666	-0.713867	-0.101613	0.432706	-0.602681	-0.257484	0.258705	-0.721773	-0.278744	0.225672	-0.714653	-0.225962	0.196797	-0.710243	-0.209636	0.233866	-0.721994	-0.335909	0.098900	-0.704792	-0.310689	0.098705	-0.620346	-0.396811	0.084634	-0.651885	-0.239735	0.028171	-0.738838	-0.190415	0.042307	-0.659311	-0.164013	0.033151	-0.664810	
